# xmcd CD database file
#
# Track frame offsets:
#	150
#	14640
#	30014
#	46257
#	58874
#	73873
#	91225
#	105041
#	120058
#	138045
#
# Disc length: 2002 seconds
#
# Revision: 0
# Processed by: cddbd v1.4PL0 Copyright (c) Steve Scherf et al.
# Submitted via: CDex 1.50
#
DISCID=6d07d00a
DTITLE=Travis Linville - Home Brewed Country
DYEAR=1999
DGENRE=Country
TTITLE0=2009
TTITLE1=Soft Place to Fall
TTITLE2=Ridin' the Road
TTITLE3=Uncertain Texas
TTITLE4=Honky Tonked to Death
TTITLE5=Ramblin Fever
TTITLE6=Bubbles in My Beer
TTITLE7=I Never Had the One I Wanted
TTITLE8=She Believes in Me
TTITLE9=Write Your Own Song
EXTD=YEAR: 1999
EXTT0=
EXTT1=
EXTT2=
EXTT3=
EXTT4=
EXTT5=
EXTT6=
EXTT7=
EXTT8=
EXTT9=
PLAYORDER=
